HIERARCHY
ROOT Hips
{
  OFFSET -455.874 92.8469 759.797
  CHANNELS 6 Xposition Yposition Zposition Zrotation Xrotation Yrotation
  JOINT Spine
  {
    OFFSET 0 8 1.31113e-05
    CHANNELS 6 Xposition Yposition Zposition Zrotation Xrotation Yrotation
    JOINT Spine1
    {
      OFFSET 3.94223e-05 8 0
      CHANNELS 6 Xposition Yposition Zposition Zrotation Xrotation Yrotation
      JOINT Spine2
      {
        OFFSET -1.50565e-05 8 0
        CHANNELS 6 Xposition Yposition Zposition Zrotation Xrotation Yrotation
        JOINT Spine3
        {
          OFFSET 0 8 0
          CHANNELS 6 Xposition Yposition Zposition Zrotation Xrotation Yrotation
          JOINT Neck
          {
            OFFSET -1.55178e-05 17.0003 2.99734e-05
            CHANNELS 6 Xposition Yposition Zposition Zrotation Xrotation Yrotation
            JOINT Head
            {
              OFFSET 0 10.8 -1.72171e-05
              CHANNELS 6 Xposition Yposition Zposition Zrotation Xrotation Yrotation
              End Site
              {
                OFFSET 0 20.25 0
              }
            }
          }
          JOINT LeftShoulder
          {
            OFFSET 5.00001 17 1.39203e-05
            CHANNELS 6 Xposition Yposition Zposition Zrotation Xrotation Yrotation
            JOINT LeftShoulder2
            {
              OFFSET 6.45 0 0
              CHANNELS 6 Xposition Yposition Zposition Zrotation Xrotation Yrotation
              JOINT LeftArm
              {
                OFFSET 6.44998 0 0
                CHANNELS 6 Xposition Yposition Zposition Zrotation Xrotation Yrotation
                JOINT LeftForeArm
                {
                  OFFSET -2.85668e-05 -32.4 -1.99906
                  CHANNELS 6 Xposition Yposition Zposition Zrotation Xrotation Yrotation
                  JOINT LeftHand
                  {
                    OFFSET 1.62303e-05 -25.65 1.99999
                    CHANNELS 6 Xposition Yposition Zposition Zrotation Xrotation Yrotation
                    JOINT LeftHandThumb1
                    {
                      OFFSET -0.499983 -1.49993 2.65
                      CHANNELS 6 Xposition Yposition Zposition Zrotation Xrotation Yrotation
                      JOINT LeftHandThumb2
                      {
                        OFFSET 0 -3.79999 3.70004
                        CHANNELS 6 Xposition Yposition Zposition Zrotation Xrotation Yrotation
                        JOINT LeftHandThumb3
                        {
                          OFFSET -1.60188e-05 -3.00006 2.69997
                          CHANNELS 6 Xposition Yposition Zposition Zrotation Xrotation Yrotation
                          End Site
                          {
                            OFFSET 2.60924e-05 -2.29999 1.79996
                          }
                        }
                      }
                    }
                    JOINT LeftHandIndex
                    {
                      OFFSET 2.74158e-05 -1.90004 1.60002
                      CHANNELS 6 Xposition Yposition Zposition Zrotation Xrotation Yrotation
                      JOINT LeftHandIndex1
                      {
                        OFFSET 0 -8.29998 1.89998
                        CHANNELS 6 Xposition Yposition Zposition Zrotation Xrotation Yrotation
                        JOINT LeftHandIndex2
                        {
                          OFFSET -1.93167e-05 -4.49997 2.87465e-05
                          CHANNELS 6 Xposition Yposition Zposition Zrotation Xrotation Yrotation
                          JOINT LeftHandIndex3
                          {
                            OFFSET -5.6043e-05 -3.39998 -3.52984e-05
                            CHANNELS 6 Xposition Yposition Zposition Zrotation Xrotation Yrotation
                            End Site
                            {
                              OFFSET 1.58175e-05 -2.59991 1.53591e-05
                            }
                          }
                        }
                      }
                    }
                    JOINT LeftHandMiddle
                    {
                      OFFSET -0.249997 -2.19999 0.399999
                      CHANNELS 6 Xposition Yposition Zposition Zrotation Xrotation Yrotation
                      JOINT LeftHandMiddle1
                      {
                        OFFSET 0 -8.29995 1
                        CHANNELS 6 Xposition Yposition Zposition Zrotation Xrotation Yrotation
                        JOINT LeftHandMiddle2
                        {
                          OFFSET -1.2039e-05 -4.65 1.45537e-05
                          CHANNELS 6 Xposition Yposition Zposition Zrotation Xrotation Yrotation
                          JOINT LeftHandMiddle3
                          {
                            OFFSET -3.48151e-05 -3.30001 -1.26685e-05
                            CHANNELS 6 Xposition Yposition Zposition Zrotation Xrotation Yrotation
                            End Site
                            {
                              OFFSET -5.59054e-05 -2.69999 0
                            }
                          }
                        }
                      }
                    }
                    JOINT LeftHandRing
                    {
                      OFFSET -0.500023 -2.15004 -0.799973
                      CHANNELS 6 Xposition Yposition Zposition Zrotation Xrotation Yrotation
                      JOINT LeftHandRing1
                      {
                        OFFSET 0 -7.75 -0.200001
                        CHANNELS 6 Xposition Yposition Zposition Zrotation Xrotation Yrotation
                        JOINT LeftHandRing2
                        {
                          OFFSET 0 -3.80223 -1.25918e-05
                          CHANNELS 6 Xposition Yposition Zposition Zrotation Xrotation Yrotation
                          JOINT LeftHandRing3
                          {
                            OFFSET 0 -3.39997 -2.60202e-05
                            CHANNELS 6 Xposition Yposition Zposition Zrotation Xrotation Yrotation
                            End Site
                            {
                              OFFSET -6.17576e-05 -2.60003 0
                            }
                          }
                        }
                      }
                    }
                    JOINT LeftHandPinky
                    {
                      OFFSET -0.750022 -1.75 -1.84998
                      CHANNELS 6 Xposition Yposition Zposition Zrotation Xrotation Yrotation
                      JOINT LeftHandPinky1
                      {
                        OFFSET 0 -7.14998 -1.00002
                        CHANNELS 6 Xposition Yposition Zposition Zrotation Xrotation Yrotation
                        JOINT LeftHandPinky2
                        {
                          OFFSET 0 -3.00208 0
                          CHANNELS 6 Xposition Yposition Zposition Zrotation Xrotation Yrotation
                          JOINT LeftHandPinky3
                          {
                            OFFSET -3.4869e-05 -2.34999 3.34376e-05
                            CHANNELS 6 Xposition Yposition Zposition Zrotation Xrotation Yrotation
                            End Site
                            {
                              OFFSET 1.54129e-05 -2.09999 -1.5132e-05
                            }
                          }
                        }
                      }
                    }
                  }
                }
              }
            }
          }
          JOINT RightShoulder
          {
            OFFSET -4.99999 17 1.85894e-05
            CHANNELS 6 Xposition Yposition Zposition Zrotation Xrotation Yrotation
            JOINT RightShoulder2
            {
              OFFSET -6.45 0 0
              CHANNELS 6 Xposition Yposition Zposition Zrotation Xrotation Yrotation
              JOINT RightArm
              {
                OFFSET -6.45003 0 0
                CHANNELS 6 Xposition Yposition Zposition Zrotation Xrotation Yrotation
                JOINT RightForeArm
                {
                  OFFSET -8.73186e-05 -32.4 -1.99998
                  CHANNELS 6 Xposition Yposition Zposition Zrotation Xrotation Yrotation
                  JOINT RightHand
                  {
                    OFFSET 4.41736e-05 -25.65 1.99999
                    CHANNELS 6 Xposition Yposition Zposition Zrotation Xrotation Yrotation
                    JOINT RightHandThumb1
                    {
                      OFFSET 0.499995 -1.5 2.65001
                      CHANNELS 6 Xposition Yposition Zposition Zrotation Xrotation Yrotation
                      JOINT RightHandThumb2
                      {
                        OFFSET -2.12634e-05 -3.80005 3.70005
                        CHANNELS 6 Xposition Yposition Zposition Zrotation Xrotation Yrotation
                        JOINT RightHandThumb3
                        {
                          OFFSET 0 -3.00002 2.69996
                          CHANNELS 6 Xposition Yposition Zposition Zrotation Xrotation Yrotation
                          End Site
                          {
                            OFFSET -1.76526e-05 -2.3 1.8
                          }
                        }
                      }
                    }
                    JOINT RightHandIndex
                    {
                      OFFSET 8.74223e-05 -1.89991 1.6
                      CHANNELS 6 Xposition Yposition Zposition Zrotation Xrotation Yrotation
                      JOINT RightHandIndex1
                      {
                        OFFSET -5.74538e-05 -8.30004 1.89996
                        CHANNELS 6 Xposition Yposition Zposition Zrotation Xrotation Yrotation
                        JOINT RightHandIndex2
                        {
                          OFFSET -1.30846e-05 -4.49999 4.59416e-05
                          CHANNELS 6 Xposition Yposition Zposition Zrotation Xrotation Yrotation
                          JOINT RightHandIndex3
                          {
                            OFFSET 4.10297e-05 -3.39999 0
                            CHANNELS 6 Xposition Yposition Zposition Zrotation Xrotation Yrotation
                            End Site
                            {
                              OFFSET -3.6777e-05 -2.59999 1.07895e-05
                            }
                          }
                        }
                      }
                    }
                    JOINT RightHandMiddle
                    {
                      OFFSET 0.250041 -2.19997 0.400036
                      CHANNELS 6 Xposition Yposition Zposition Zrotation Xrotation Yrotation
                      JOINT RightHandMiddle1
                      {
                        OFFSET -1.74546e-05 -8.29998 1.00001
                        CHANNELS 6 Xposition Yposition Zposition Zrotation Xrotation Yrotation
                        JOINT RightHandMiddle2
                        {
                          OFFSET -2.02913e-05 -4.64999 -4.52334e-05
                          CHANNELS 6 Xposition Yposition Zposition Zrotation Xrotation Yrotation
                          JOINT RightHandMiddle3
                          {
                            OFFSET 3.15545e-05 -3.29999 0
                            CHANNELS 6 Xposition Yposition Zposition Zrotation Xrotation Yrotation
                            End Site
                            {
                              OFFSET -5.68815e-05 -2.69998 7.41007e-05
                            }
                          }
                        }
                      }
                    }
                    JOINT RightHandRing
                    {
                      OFFSET 0.500029 -2.14998 -0.800019
                      CHANNELS 6 Xposition Yposition Zposition Zrotation Xrotation Yrotation
                      JOINT RightHandRing1
                      {
                        OFFSET 0 -7.75004 -0.200013
                        CHANNELS 6 Xposition Yposition Zposition Zrotation Xrotation Yrotation
                        JOINT RightHandRing2
                        {
                          OFFSET 2.25537e-05 -3.79999 0
                          CHANNELS 6 Xposition Yposition Zposition Zrotation Xrotation Yrotation
                          JOINT RightHandRing3
                          {
                            OFFSET -3.48111e-05 -3.39999 0
                            CHANNELS 6 Xposition Yposition Zposition Zrotation Xrotation Yrotation
                            End Site
                            {
                              OFFSET -2.53312e-05 -2.59996 1.61222e-05
                            }
                          }
                        }
                      }
                    }
                    JOINT RightHandPinky
                    {
                      OFFSET 0.750025 -1.74993 -1.84997
                      CHANNELS 6 Xposition Yposition Zposition Zrotation Xrotation Yrotation
                      JOINT RightHandPinky1
                      {
                        OFFSET 0 -7.15001 -0.999979
                        CHANNELS 6 Xposition Yposition Zposition Zrotation Xrotation Yrotation
                        JOINT RightHandPinky2
                        {
                          OFFSET 0 -3 2.47291e-05
                          CHANNELS 6 Xposition Yposition Zposition Zrotation Xrotation Yrotation
                          JOINT RightHandPinky3
                          {
                            OFFSET -2.50474e-05 -2.35002 -1.27409e-05
                            CHANNELS 6 Xposition Yposition Zposition Zrotation Xrotation Yrotation
                            End Site
                            {
                              OFFSET 2.50124e-05 -2.0999 1.0451e-05
                            }
                          }
                        }
                      }
                    }
                  }
                }
              }
            }
          }
        }
      }
    }
  }
  JOINT LeftUpLeg
  {
    OFFSET 7.99998 0 1.8204e-05
    CHANNELS 6 Xposition Yposition Zposition Zrotation Xrotation Yrotation
    JOINT LeftLeg
    {
      OFFSET 2.03361e-05 -45 -1.00002
      CHANNELS 6 Xposition Yposition Zposition Zrotation Xrotation Yrotation
      JOINT LeftFoot
      {
        OFFSET -3.28155e-05 -41 -2.00001
        CHANNELS 6 Xposition Yposition Zposition Zrotation Xrotation Yrotation
        JOINT LeftToeBase
        {
          OFFSET 2.91044e-05 -7.5 12.5
          CHANNELS 6 Xposition Yposition Zposition Zrotation Xrotation Yrotation
          JOINT LeftFootToe
          {
            OFFSET 0 0 4
            CHANNELS 6 Xposition Yposition Zposition Zrotation Xrotation Yrotation
            End Site
            {
              OFFSET 0 0 0
            }
          }
        }
      }
    }
  }
  JOINT RightUpLeg
  {
    OFFSET -7.99998 0 -1.8204e-05
    CHANNELS 6 Xposition Yposition Zposition Zrotation Xrotation Yrotation
    JOINT RightLeg
    {
      OFFSET -2.49592e-05 -45 -0.999938
      CHANNELS 6 Xposition Yposition Zposition Zrotation Xrotation Yrotation
      JOINT RightFoot
      {
        OFFSET 5.25084e-05 -41 -2.0001
        CHANNELS 6 Xposition Yposition Zposition Zrotation Xrotation Yrotation
        JOINT RightToeBase
        {
          OFFSET 0 -7.5 12.5
          CHANNELS 6 Xposition Yposition Zposition Zrotation Xrotation Yrotation
          JOINT RightFootToe
          {
            OFFSET 0 0 4
            CHANNELS 6 Xposition Yposition Zposition Zrotation Xrotation Yrotation
            End Site
            {
              OFFSET 0 0 0
            }
          }
        }
      }
    }
  }
}
MOTION
Frames:	2
Frame Time:	0.0111111
-452.367 92.0261 762.389 -5.03768 -3.50326 -144.795 -1.54449e-05 8 3.39104e-06 -7.62258 0.510685 15.5257 3.05323e-06 8 -2.13291e-05 0.383161 0.71517 6.05844 7.34485e-06 8 3.403e-05 0.212989 0.348618 3.04659 0 8 5.68434e-14 0.205261 0.350804 3.02948 -0.000172248 17 -0.00025595 -5.74262 14.9906 19.9418 3.49616e-05 10.8 1.10897e-05 -17.0479 16.3078 48.3765 4.9998 17 -0.000193509 -11.2365 7.64021 5.88941 6.45 0 0 0.135399 1.02565 0.0880928 6.45002 0.000119746 0.000350531 54.6762 -27.795 39.7667 -4.90135e-06 -32.4 -1.99695 -59.4032 -44.366 -56.6185 -1.03261e-05 -25.65 2 -4.62179 -19.7289 -19.4113 -0.499992 -1.49998 2.64999 32.2463 -1.96442 -24.951 -4.13717e-07 -3.79998 3.70004 -0.149722 30.5747 0.0411888 3.5402e-07 -3.00004 2.69995 -0.0425154 -0.394509 0.05556 1.35361e-05 -1.90009 1.59998 6.03858e-06 -8.24652e-07 -1.03156e-05 6.88047e-06 -8.29995 1.9 -1.56244 10.4513 0.181404 -2.07565e-06 -4.49996 -5.41051e-06 -2.26015 -0.0242387 0.024566 -4.28726e-05 -3.4239 2.15166e-05 1.21003e-05 -0.0221809 0.0234325 -0.249993 -2.2 0.4 6.03858e-06 -8.24652e-07 -1.03156e-05 -1.49941e-05 -8.29998 0.999993 -1.23891 6.37239 0.118103 -2.49042e-09 -4.64997 1.1277e-06 -0.000157854 0.0501126 0.0353606 -2.56664e-05 -3.30004 1.15377e-05 -1.1053e-05 0.0319329 0.0335871 -0.500014 -2.15006 -0.800018 6.03858e-06 -8.24652e-07 -1.03156e-05 -8.50461e-06 -7.75001 -0.199999 -0.68783 -1.39405 0.062586 1.00437e-05 -3.84935 9.02652e-07 -1.35906 -0.00652659 -0.0367767 -1.27827e-05 -3.40003 1.35011e-05 -0.000114445 -0.101701 -0.0580505 -0.75002 -1.75003 -1.85001 6.03858e-06 -8.24652e-07 -1.03156e-05 -1.75934e-05 -7.15 -0.999996 -0.389383 -5.19559 0.062089 1.19021e-05 -3.00609 8.67009e-07 -14.7789 0.0279437 -0.0749816 -1.80488e-05 -2.35002 5.30195e-06 2.48044e-05 0.00615456 -0.084493 -5.0002 16.9999 -0.000337222 -8.75461 6.0484 15.118 -6.45 0 8.52651e-14 -1.037 0.314482 -3.01163 -6.44999 0.000195905 -0.000384437 -24.366 -2.87264 -29.0733 -7.16054e-05 -32.4 -1.99994 102.058 -50.4255 102.207 5.84589e-05 -25.65 1.99999 -56.7087 28.847 29.4961 0.499998 -1.50004 2.65002 -103.968 -12.8484 -37.8238 -5.89644e-05 -3.80006 3.70003 0.325761 49.8287 0.0974815 -8.6633e-06 -3 2.69999 0.111456 24.7696 -0.565354 6.03382e-05 -1.89997 1.6 2.68601e-06 -4.73387e-06 8.33582e-07 -6.11137e-05 -8.30001 1.89996 30.4626 -3.55441 0.677088 -3.22397e-05 -4.49998 4.85188e-05 1.49685 0.024171 -0.0182752 4.50079e-05 -3.39999 -1.6755e-05 1.45601 0.0229726 -0.00603602 0.249969 -2.19998 0.400045 2.68601e-06 -4.73387e-06 8.33582e-07 2.38203e-05 -8.29996 0.999989 30.5731 5.08229 -2.20986 -1.20684e-05 -4.65003 -2.47509e-05 68.4356 0.0165649 -0.0197314 3.49888e-05 -3.29996 -1.01941e-05 46.6788 -0.00946927 -0.0178203 0.499994 -2.15003 -0.799997 2.68601e-06 -4.73387e-06 8.33582e-07 3.32831e-05 -7.75001 -0.200036 57.2914 0.649381 -3.62867 4.06855e-06 -3.8 1.66202e-05 43.691 0.0271064 -0.0774742 -2.5278e-05 -3.39995 -9.48401e-06 30.3951 -0.0104307 -0.0508032 0.750031 -1.74996 -1.84996 2.68601e-06 -4.73387e-06 8.33582e-07 -3.73632e-05 -7.15 -0.999996 63.8169 -2.68495 -3.54234 -5.09541e-06 -2.99998 2.36568e-05 34.9158 -0.0125053 0.0270475 -1.51668e-05 -2.35003 -1.12032e-05 25.0287 0.0130144 0.0177723 8.00001 7.23545e-08 -1.02509e-05 8.79303 -15.9771 19.9313 6.78584e-06 -45 -1.00005 0.613587 1.01279 -1.90922 4.7885e-06 -41 -2.00001 -10.2904 18.4001 -23.8449 -1.91192e-05 -7.5 12.5 -1.79863e-07 3.40488e-06 -3.3484e-06 0 1.33227e-15 4 -3.46293 -5.80927 6.61121 -8.00001 -7.23545e-08 1.02509e-05 -12.4927 -17.4988 3.03604 8.32895e-06 -45 -1.00001 1.24871 32.3048 -11.5468 -5.4844e-06 -41 -2.00006 15.5555 -7.43993 -26.1514 2.94971e-05 -7.5 12.5 -0.000178696 -7.86824 1.73976e-05 -1.13687e-13 0 4 -2.61091 8.86212 -1.00788 
-452.372 92.0262 762.39 -5.0387 -3.50349 -144.809 -1.54449e-05 8 3.39104e-06 -7.6138 0.503178 15.5257 3.05323e-06 8 -2.13291e-05 0.3839 0.712681 6.06168 7.34485e-06 8 3.403e-05 0.213068 0.347956 3.04654 0 8 0 0.205198 0.350792 3.02948 -0.000172248 17 -0.00025595 -5.73829 14.9746 19.9453 3.49616e-05 10.8 1.10897e-05 -17.053 16.2757 48.3813 4.9998 17 -0.000193509 -11.2236 7.64342 5.89716 6.45 -5.68434e-14 -1.13687e-13 0.139686 1.02513 0.095761 6.45002 0.000119746 0.000350531 54.7887 -27.9865 39.7032 -4.90135e-06 -32.4 -1.99695 -59.3935 -44.4901 -56.5045 -1.03261e-05 -25.65 2 -3.77944 -19.3339 -19.1502 -0.499992 -1.49998 2.64999 31.7556 -2.12905 -24.4991 -4.13717e-07 -3.79998 3.70004 -0.149318 30.2324 0.0411121 3.5402e-07 -3.00004 2.69995 -0.0413515 -0.404055 0.0537944 1.35361e-05 -1.90009 1.59998 6.03858e-06 -8.24652e-07 -1.03156e-05 6.88047e-06 -8.29995 1.9 -1.47602 10.1714 0.167423 -2.07565e-06 -4.49996 -5.41051e-06 -2.26031 -0.0227015 0.0228732 -4.28726e-05 -3.4239 2.15166e-05 1.21374e-05 -0.020796 0.0218229 -0.249993 -2.2 0.4 6.03858e-06 -8.24652e-07 -1.03156e-05 -1.49941e-05 -8.29998 0.999993 -1.16552 6.27 0.108816 -2.49065e-09 -4.64997 1.1277e-06 -0.000154295 0.0489669 0.0335737 -2.56664e-05 -3.30004 1.15377e-05 -1.0501e-05 0.0316888 0.0319173 -0.500014 -2.15006 -0.800018 6.03858e-06 -8.24652e-07 -1.03156e-05 -8.50461e-06 -7.75001 -0.199999 -0.626983 -1.18797 0.0571902 1.00437e-05 -3.84935 9.02652e-07 -1.35906 -0.00635406 -0.0366416 -1.27827e-05 -3.40003 1.35011e-05 -0.000111277 -0.0992813 -0.0571585 -0.75002 -1.75003 -1.85001 6.03858e-06 -8.24652e-07 -1.03156e-05 -1.75934e-05 -7.15 -0.999996 -0.338398 -4.84628 0.055793 1.19021e-05 -3.00609 8.67009e-07 -14.779 0.0271791 -0.0743023 -1.80488e-05 -2.35002 5.30195e-06 2.45688e-05 0.00593596 -0.0833207 -5.0002 16.9999 -0.000337222 -8.74562 6.02143 15.1055 -6.45 0 0 -1.03927 0.319934 -3.01496 -6.44999 0.000195905 -0.000384437 -24.4814 -2.85856 -29.075 -7.16054e-05 -32.4 -1.99994 101.682 -50.1581 101.13 5.84589e-05 -25.65 1.99999 -55.9344 29.4269 27.4825 0.499998 -1.50004 2.65002 -106.955 -14.4723 -38.9699 -5.89644e-05 -3.80006 3.70003 0.319886 49.4696 0.10103 -8.6633e-06 -3 2.69999 0.110615 24.764 -0.5639 6.03382e-05 -1.89997 1.6 2.68601e-06 -4.73387e-06 8.33582e-07 -6.11137e-05 -8.30001 1.89996 31.3341 -3.15977 0.581356 -3.22397e-05 -4.49998 4.85188e-05 1.41199 0.0112245 -0.0182172 4.50079e-05 -3.39999 -1.6755e-05 1.37419 0.0107721 -0.00643517 0.249969 -2.19998 0.400045 2.68601e-06 -4.73387e-06 8.33582e-07 2.38203e-05 -8.29996 0.999989 32.2284 4.90365 -2.31908 -1.20684e-05 -4.65003 -2.47509e-05 68.2863 0.0150637 -0.000174877 3.49888e-05 -3.29996 -1.01941e-05 46.5292 0.00172667 -0.00219726 0.499994 -2.15003 -0.799997 2.68601e-06 -4.73387e-06 8.33582e-07 3.32831e-05 -7.75001 -0.200036 58.9515 0.607433 -3.85799 4.06856e-06 -3.8 1.66202e-05 42.8752 0.0188709 -0.0533544 -2.5278e-05 -3.39995 -9.48401e-06 29.8745 -0.00799358 -0.03486 0.750031 -1.74996 -1.84996 2.68601e-06 -4.73387e-06 8.33582e-07 -3.73632e-05 -7.15 -0.999996 65.2277 -2.65374 -3.79011 -5.09541e-06 -2.99998 2.36568e-05 34.8004 -0.0109295 0.0236262 -1.51668e-05 -2.35003 -1.12032e-05 24.9593 0.0135005 0.0155704 8.00001 7.23544e-08 -1.02509e-05 8.78893 -15.9729 19.9234 6.78584e-06 -45 -1.00005 0.613494 1.01188 -1.90903 4.7885e-06 -41 -2.00001 -10.2945 18.3949 -23.8205 -1.91192e-05 -7.5 12.5 -1.79863e-07 3.40488e-06 -3.3484e-06 0 -4.44089e-16 4 -3.47432 -5.82506 6.61152 -8.00001 -7.23545e-08 1.02509e-05 -12.4978 -17.4985 3.03669 8.32895e-06 -45 -1.00001 1.24861 32.3045 -11.5466 -5.4844e-06 -41 -2.00006 15.5618 -7.43036 -26.1415 2.94971e-05 -7.5 12.5 -0.000178695 -7.87248 1.73977e-05 -5.68434e-14 3.55271e-15 4 -2.61109 8.86193 -1.00794 
